<?xml version="1.0" standalone="no"?><!DOCTYPE svg PUBLIC "-//W3C//DTD SVG 1.1//EN" "http://www.w3.org/Graphics/SVG/1.1/DTD/svg11.dtd"><svg t="1606660614476" class="icon" viewBox="0 0 1024 1024" version="1.1" xmlns="http://www.w3.org/2000/svg" p-id="20894" width="512" height="512" xmlns:xlink="http://www.w3.org/1999/xlink"><defs><style type="text/css"></style></defs><path d="M297.9 150.7C272.4 127.2 261.5 99 264.8 64c22.9 10.8 44.2 22.9 67 31 20.8 7.4 43 14.2 64.8 14.7 61.7 1.6 123.6 0.2 185.4-0.5 35.6-0.4 66.1-15.8 95.4-34.1 5.2-3.2 10.2-6.8 19.2-8.1-11.5 29.8-23.1 59.5-35.2 90.7 52.8 82.1 57 166.3-3.2 250.5 46.8 49.9 75.1 108.6 86.7 175.7 8.4 48.8 8 97.7-3.1 145.6-15.9 68.8-34.7 137-52.5 205.4-1.7 6.5-4.3 12.7-7.3 21.2-29.6-44.1-70-72.5-116.3-92.1-37.1-15.7-75.3-29-113.5-42.1-136.7-47-186.2-158.2-165.2-286 6.3-38.6 17.8-76.4 26.4-114.7 1.3-5.9 2.1-14.4-1-18.6-60.9-80.1-63.3-163.6-14.5-251.9z m19.5 101.5c-1.7 44.6 32.8 83.2 75.9 84.9 41.9 1.6 78.8-35.7 80.1-81 1.2-43.5-33.2-81.9-75.4-84-42.2-2.2-78.8 34.3-80.6 80.1z m182.1 0.8c-1.4 44.5 33.8 83.1 76.7 84.1 41.4 1 77.3-35.3 79.3-80.1 1.9-43.9-33.4-83.3-76.2-84.9-42.2-1.6-78.4 35-79.8 80.9z m177 668.8c2.3-1 4.6-2 6.8-3 1-7.2 2.5-14.3 2.9-21.5 5-89.8-12.4-175.1-51.1-256.4-19-40-36.5-80.8-52.1-122.2-9.4-25-13.6-52-20.7-77.9-1-3.7-5.5-6.5-8.3-9.7-2 3.2-5.1 6.2-5.8 9.6-0.7 3.6 0.8 7.7 1.5 11.6 12.3 66.3 38.8 127.5 68.2 187.6 41.4 84.5 61.3 173 52.5 267.4-0.3 4.6 4 9.7 6.1 14.5zM484.9 408.7c21.3-20.5 31.3-44.8 37.7-70.2 4-15.7-18.8-44.1-34.5-46.6-12.9-2-40.8 20-39.6 35.3 2.3 30.4 14 57.8 36.4 81.5z" p-id="20895"></path><path d="M431.3 949.1c4.8-28.3 17.6-41 45.9-46.3 3.8-0.7 7.8-0.8 11.7-1.5 26.6-5 29.5-8.6 28.6-35.6-0.1-3.3-0.2-6.7 0-10.1 0.1-0.9 1-1.8 2.3-4 12.2 4.4 24.7 8.9 40.1 14.4-21.9 21.7-11.4 37.5 6 53.1 9.1 8.1 16.1 18.6 27.6 32.3-10.2 1.1-17 2.9-23.4 2.2-29.8-3.4-59.5-8.9-89.4-10.8-15.8-1-31.9 3.9-49.4 6.3zM393.7 287.9c-19.2 0-34-14.8-34-34.1 0-19.7 14.2-33.7 34.1-33.7 20.3 0 33.7 13.5 33.7 33.8-0.1 19.8-14.1 34-33.8 34zM612.9 253.4c0.2 20-13.7 34.3-33.3 34.5-19.3 0.2-34.3-14.4-34.5-33.6-0.2-19.7 13.8-34 33.6-34.2 20.4-0.2 34.1 13.1 34.2 33.3z" p-id="20896"></path></svg>